<?xml version="1.0" encoding="utf-8"?>
<!-- Generator: Adobe Illustrator 20.0.0, SVG Export Plug-In . SVG Version: 6.00 Build 0)  -->
<!DOCTYPE svg PUBLIC "-//W3C//DTD SVG 1.1//EN" "http://www.w3.org/Graphics/SVG/1.1/DTD/svg11.dtd">
<svg version="1.1" id="Layer_1" xmlns="http://www.w3.org/2000/svg" xmlns:xlink="http://www.w3.org/1999/xlink" x="0px" y="0px"
	 width="612px" height="216px" viewBox="0 0 612 216" style="enable-background:new 0 0 612 216;" xml:space="preserve">
<style type="text/css">
	.st0{fill:#2C3E7B;}
	.st1{fill:#BE1E2D;}
</style>
<g>
	<path class="st0" d="M52.8,42.8h18l8.3,57l9.2-57h17.8l-18.6,94.1H70.1L52.8,42.8z"/>
	<path class="st0" d="M116.9,42.8h16.8l20.3,94.1h-18.8l-3.9-20.1h-12.3l-3.7,20.1H96.5L116.9,42.8z M130.1,105.1l-4.8-34.9l-5,34.9
		H130.1z"/>
</g>
<polygon class="st0" points="453.2,60.9 453.2,40.5 435,40.5 435,55.9 413.8,45.7 429.8,63.9 "/>
<rect x="495.5" y="100.3" class="st0" width="9.4" height="12.2"/>
<rect x="507.4" y="100.3" class="st0" width="9.4" height="12.2"/>
<rect x="495.5" y="114.9" class="st0" width="9.4" height="12.2"/>
<rect x="507.4" y="114.9" class="st0" width="9.4" height="12.2"/>
<path class="st0" d="M381.1,145.1c2.8,1.7,5.6,2.9,8.3,3.9l1.3-9L381.1,145.1z"/>
<path class="st0" d="M382.7,138.9c-1.8,0-3.5-0.1-5.1-0.4c3.4,0.7,7.8,1,13.2,0.7l0.2-1.6C388.3,138.4,385.6,138.9,382.7,138.9z"/>
<path class="st0" d="M594,120.9c0,0-3.2,3.2-8.2,6.3c-5.1,3.2-10.4,4.2-10.4,4.2s7.1-4.1,12-10.5c2-2.6,4-6.2,5.6-9.5
	c3-6.3,1.9-10.3,1.9-10.3s-8.1,9.9-11.4,13.4s-7.7,6-6.7,4.5c0.5-0.7,3.5-3.8,4.4-8.2c0.9-4.2,0.3-7.8,0.3-7.8s-5.3,8.7-23.7,19.3
	l-51.9-65.5l0,0l0,0l-33.4,16.6l-11.6-5.2l-16.3,15.1l23.1,29.1l8.7,0l29.6-35.6l39.1,48.6c-10.5,7.3-19.5,5.8-32.7,4.9
	c0,0-13.4,3.5-18.3,4.1l0,0c0.9,0.5,3.6,3.1,5.6,5.8c1.3,1.8,2.5,4.3,2.4,4.3l-0.8,0.1l1.5,3.5c0,0-2.1-0.8-2.8-0.9
	s-1.1-0.1-1.1-0.1s-1.8-2.2-2-2.5c-0.2-0.3-0.2,0.7-0.2,0.7s-1-0.3-3.3-1.6c-2.4-1.3-3.4-1.5-3.4-1.5l1,1.6c0,0-2.1-1-3.5-1.7
	c-1.3-0.7-2.2-1.1-2.2-1.1s3,2.4,3.9,3.5c0.9,1.1,1.7,3.4,3.1,3.6c1.4,0.2,2.6-1.1,2.6-1.1l0.9,1.5c0,0-0.3,0.3-0.5,0.5
	c-0.2,0.2,0,0.8,0,0.8s-1.2-0.1-2-0.1c-8.6-0.5-16.1,4.7-21.7,10.4c0,0,0.8-3.2,1.4-5.8c0.2-0.2,0.5-0.3,0.7-0.5
	c3.5-2.2,7.5-3.8,11.4-5.1c-5.5,0.7-9.8,2-12,2.8c-1.6-1.5-8.9-2.3-10.4-2.4c3.9-3.1,8.7-5,13.4-6.5c-3.2,0.4-5.9,1-8.1,1.6
	c-4.4-1-11.9-2.7-15.5-3.6c6.4-3.1,13.6-4.5,20.5-5.6c-2.6-0.1-5-0.1-7.3,0l-9.9-3.5c0,0,5.8-0.2,12.5-0.8c0.5,0,1.1-0.1,1.7-0.1
	c0,0-22.4-7.4-44.3-19.4l-31.8,38.9c7.3,1.9,14.1,1.9,20.3,1.6c5.7-2.1,11.8-4.3,11.8-4.3c-7.9,5.9-15,9.1-24.1,11.9
	c-3.8,0.7-7.9,0.7-11.5,0.5c-7.1-0.5-14.3-1.8-21.3-4.4c-1.8-0.7-3-1.2-3-1.2c8.1,4.7,17.3,6.8,26.4,7.2c-6.3,0.7-12.9,0.1-19.7-2.4
	c-6.2-2.2-8.1-3.3-8.1-3.3c1.4,4.2,1.1,7.7,5,10c5.6,3.3,11.6,5.4,18.4,6c3.6,0.3,4.3,0.3,4.3,0.3s-11.2,4.6-21.8,3.2
	c3.9,10.5,9.3,8.3,19.4,6.3c5.6-1.1,7.3-1.9,13.2-4.2c5.4-2.1,6.5-2.6,6.5-2.6s-11.6,6.7-27.8,11.8c1.3,1,2.8,1.7,4.3,1.9
	c9.2,1.4,28.3-6.1,28.3-6.1c13.2,1.5,26.6,1.3,40.1-0.7c11.9-6.3,23.4-11.7,32.9-21.1c0.3-0.3,5.1,2,14.3,4.6c6.9,2,16.9,5.2,27.1,3
	l-4.1-2.6c6.6,2.2,8.5,1.8,14.9-0.8c9-3.6,15-7.6,15-7.6l-7.6-2c-3.8-1-0.4-0.8,4.8-1.6c7.8-1.2,27.9-4.4,38.9-13.9
	c0,0-0.9,0.5-5.3,1c-4.4,0.5-12.4-0.9-12.4-0.9s5.5-2.7,11.5-6.4C591,129.5,594,120.9,594,120.9z M506.2,159.5
	c-0.3,1.8-2.1,3.9-2.1,3.9s0.1-0.9,0-1.9c0-1-0.7-2.7-0.7-2.7s-3-2.8-5.9-4.6c-2.9-1.8-7-3.4-7-3.4c1.8-1,6,0.1,6,0.1l-0.6-1.3
	c0,0,0.6-0.4,1.6-0.7c0.9-0.3,2.1-0.7,3-0.5c0.9,0.2,2.3,0.8,2.3,0.8s1.2,2.6,1.8,4.1C505.2,154.6,506.6,157.7,506.2,159.5z"/>
<path class="st0" d="M499.7,151.3c-0.2,0.3-0.1,0.9-0.1,0.9s1,0.1,1.5,0.6c0.5,0.5,0.7,0.7,0.7,0.7S501.3,151.4,499.7,151.3z"/>
<polygon class="st1" points="176.9,42.8 157.9,42.8 157.9,136.9 195.6,136.9 195.6,123.9 176.9,123.9 "/>
<path class="st1" d="M247.9,105.5V74.3c0-22.2-9.2-33.4-27.6-33.4c-18.3,0-27.5,11.1-27.5,33.4V106c0,4.6,0.5,8.8,1.4,12.8
	c0.9,4,2.5,7.4,4.6,10.4c2.1,3,5,5.3,8.5,7c3.5,1.7,7.9,2.6,13,2.6c5.2,0,9.6-0.9,13.1-2.6c3.5-1.8,6.4-4.2,8.5-7.2
	c2.1-3,3.7-6.6,4.6-10.6C247.5,114.3,247.9,110,247.9,105.5z M228.9,110.3c0,9.2-2.8,13.9-8.5,13.9c-5.6,0-8.5-4.6-8.5-13.9V69.6
	c0-1.6,0.1-3.2,0.3-4.9c0.2-1.7,0.7-3.1,1.3-4.5c0.6-1.3,1.5-2.4,2.6-3.3c1.1-0.9,2.5-1.3,4.3-1.3c5.7,0,8.5,4.6,8.5,13.9V110.3z"/>
<path class="st1" d="M266.2,42.8l-20.3,94.1h18.9l3.7-20.1h12.3l3.9,20.1h18.8L283,42.8H266.2z M269.7,105.1l5-34.9l4.8,34.9H269.7z
	"/>
<polygon class="st1" points="338,92 317.3,42.8 303.6,42.8 303.6,136.9 320,136.9 320,84.7 340.6,136.9 353.8,136.9 353.8,42.8 
	338,42.8 "/>
<path class="st1" d="M391,137.6c0.4-0.1,0.8-0.2,1.1-0.4c2.9-1.1,5.5-2.7,7.7-4.7c2.2-2,3.9-4.4,5.2-7.1c1.3-2.8,1.9-5.8,1.9-9
	c0-3.5-0.4-6.7-1.2-9.6c-0.8-2.9-2-5.7-3.5-8.3c-1.4-2.4-3.1-4.7-5-6.9c-0.1-0.1-0.2-0.3-0.4-0.4c-1.1-1.2-2.3-2.5-3.6-3.7
	c-0.1-0.1-0.1-0.1-0.2-0.2c-1-1-2-1.9-3.1-2.9l-7-6c-1.3-1.1-2.4-2.2-3.4-3.2c-0.9-1-1.7-2.1-2.4-3.2c0-0.1-0.1-0.1-0.1-0.2
	c-0.7-1.2-1.2-2.4-1.6-3.7c-0.3-1.3-0.5-2.7-0.5-4.3c0-1.1,0.1-2.1,0.4-3.1c0.3-1,0.7-1.9,1.2-2.6c0.5-0.8,1.2-1.4,2-1.8
	c0.8-0.5,1.7-0.7,2.7-0.7c1.2,0,2.2,0.3,3,1c0.8,0.7,1.4,1.6,1.8,2.6c0.4,1.1,0.7,2.2,0.9,3.5c0.2,1.3,0.3,2.5,0.3,3.6
	c0,0.3,0,0.6,0,0.9c0,0.3,0,0.7-0.1,1.1c0,0.4,0,0.7-0.1,1c0,0.3,0,0.6,0,0.8l0.1,0l19.6-2.7l0.1-2.2c0-3.3-0.6-6.4-1.9-9.4
	c-0.7-1.6-1.5-3.1-2.5-4.5c-0.8-1.1-1.7-2.2-2.6-3.2c-2.2-2.2-4.7-3.9-7.6-5.2c-2.9-1.3-6-1.9-9.3-1.9c-4,0-7.6,0.6-10.8,1.7
	c-3.3,1.2-6,2.8-8.4,4.9c-2.3,2.1-4.1,4.8-5.4,7.8c-1.3,3.1-1.9,6.5-1.9,10.3c0,3.7,0.5,6.8,1.4,9.6c1,2.7,2.2,5.1,3.6,7.2
	c1.5,2.1,3.1,3.9,4.9,5.5c1.8,1.6,3.5,3.1,5.2,4.5l1.9,1.6l4.1,3.4c1.2,1.1,2.3,2.1,3.3,3.2c5.2,5.5,7.8,11,7.8,16.5
	c0,4.8-1.9,7.2-5.6,7.2c-1.6-0.1-2.9-0.7-3.9-1.7c-1-1-1.7-2.4-2.2-4.1c-0.5-1.7-0.8-3.6-1-5.7c0-0.3,0-0.7,0-1
	c-0.1-1.8-0.2-3.6-0.2-5.5l-5.2,1l-14.1,2.7c0.2,3.8,0.8,7.5,1.9,11c1.1,3.5,2.8,6.5,4.9,9.2c1.7,2.1,3.8,3.8,6.1,5.3
	c0.6,0.4,1.3,0.8,2,1.1c1.1,0.5,2.2,0.9,3.4,1.3c1,0.3,1.9,0.5,3,0.7c1.6,0.3,3.3,0.4,5.1,0.4C385.6,138.9,388.3,138.4,391,137.6z"
	/>
</svg>
